<svg width="85" height="52" viewBox="0 0 85 52" fill="none" xmlns="http://www.w3.org/2000/svg">
<path d="M15.408 2.008C15.344 2.824 15.296 3.608 15.264 4.36C15.248 5.112 15.24 5.688 15.24 6.088C15.24 6.44 15.248 6.776 15.264 7.096C15.28 7.416 15.296 7.688 15.312 7.912H14.76C14.504 6.568 14.176 5.504 13.776 4.72C13.392 3.936 12.928 3.384 12.384 3.064C11.84 2.728 11.2 2.56 10.464 2.56H9.912V16.264C9.912 16.904 9.976 17.384 10.104 17.704C10.248 18.024 10.504 18.24 10.872 18.352C11.24 18.448 11.776 18.504 12.48 18.52V19C11.984 18.984 11.32 18.968 10.488 18.952C9.672 18.936 8.816 18.928 7.92 18.928C7.04 18.928 6.208 18.936 5.424 18.952C4.64 18.968 4.008 18.984 3.528 19V18.52C4.248 18.504 4.792 18.448 5.16 18.352C5.528 18.24 5.776 18.024 5.904 17.704C6.032 17.384 6.096 16.904 6.096 16.264V2.56H5.568C4.832 2.56 4.192 2.728 3.648 3.064C3.104 3.384 2.64 3.936 2.256 4.72C1.872 5.488 1.536 6.552 1.248 7.912H0.696C0.728 7.688 0.744 7.416 0.744 7.096C0.76 6.776 0.768 6.44 0.768 6.088C0.768 5.688 0.752 5.112 0.72 4.36C0.704 3.608 0.664 2.824 0.6 2.008C1.336 2.024 2.136 2.04 3 2.056C3.88 2.072 4.76 2.08 5.64 2.08C6.52 2.08 7.312 2.08 8.016 2.08C8.736 2.08 9.528 2.08 10.392 2.08C11.272 2.08 12.152 2.072 13.032 2.056C13.912 2.04 14.704 2.024 15.408 2.008ZM21.3386 0.231998V8.488C21.7386 7.656 22.2746 7.08 22.9466 6.76C23.6346 6.424 24.4026 6.256 25.2506 6.256C25.9386 6.256 26.4906 6.344 26.9066 6.52C27.3226 6.68 27.6506 6.904 27.8906 7.192C28.1626 7.496 28.3546 7.888 28.4666 8.368C28.5946 8.848 28.6586 9.496 28.6586 10.312V16.768C28.6586 17.44 28.7706 17.896 28.9946 18.136C29.2346 18.376 29.6346 18.496 30.1946 18.496V19C29.8906 18.984 29.4266 18.968 28.8026 18.952C28.1946 18.92 27.6026 18.904 27.0266 18.904C26.4026 18.904 25.7946 18.92 25.2026 18.952C24.6266 18.968 24.1946 18.984 23.9066 19V18.496C24.3866 18.496 24.7226 18.376 24.9146 18.136C25.1066 17.896 25.2026 17.44 25.2026 16.768V9.304C25.2026 8.904 25.1626 8.56 25.0826 8.272C25.0026 7.968 24.8506 7.736 24.6266 7.576C24.4186 7.4 24.1146 7.312 23.7146 7.312C23.2826 7.312 22.8826 7.432 22.5146 7.672C22.1626 7.896 21.8746 8.216 21.6506 8.632C21.4426 9.048 21.3386 9.528 21.3386 10.072V16.768C21.3386 17.44 21.4346 17.896 21.6266 18.136C21.8186 18.376 22.1546 18.496 22.6346 18.496V19C22.3466 18.984 21.9226 18.968 21.3626 18.952C20.8026 18.92 20.2346 18.904 19.6586 18.904C19.0346 18.904 18.4026 18.92 17.7626 18.952C17.1386 18.968 16.6666 18.984 16.3466 19V18.496C16.9066 18.496 17.2986 18.376 17.5226 18.136C17.7626 17.896 17.8826 17.44 17.8826 16.768V3.112C17.8826 2.392 17.7706 1.864 17.5466 1.528C17.3386 1.176 16.9386 0.999999 16.3466 0.999999V0.495999C16.8586 0.544 17.3546 0.568 17.8346 0.568C18.4906 0.568 19.1146 0.544 19.7066 0.495999C20.2986 0.431999 20.8426 0.343999 21.3386 0.231998ZM37.2602 6.256C38.6682 6.256 39.7722 6.672 40.5722 7.504C41.3722 8.336 41.7722 9.696 41.7722 11.584H33.8762L33.8282 11.128H38.7482C38.7642 10.344 38.7162 9.624 38.6042 8.968C38.4922 8.296 38.3162 7.76 38.0762 7.36C37.8362 6.96 37.5162 6.76 37.1162 6.76C36.5562 6.76 36.0762 7.112 35.6762 7.816C35.2922 8.52 35.0602 9.688 34.9802 11.32L35.0522 11.464C35.0362 11.656 35.0202 11.856 35.0042 12.064C35.0042 12.272 35.0042 12.488 35.0042 12.712C35.0042 13.816 35.1562 14.712 35.4602 15.4C35.7802 16.088 36.1802 16.592 36.6602 16.912C37.1402 17.216 37.6282 17.368 38.1242 17.368C38.4602 17.368 38.8042 17.32 39.1562 17.224C39.5242 17.112 39.8922 16.92 40.2602 16.648C40.6282 16.36 40.9722 15.96 41.2922 15.448L41.7242 15.592C41.5322 16.2 41.2282 16.792 40.8122 17.368C40.3962 17.944 39.8682 18.416 39.2282 18.784C38.5882 19.152 37.8202 19.336 36.9242 19.336C35.8362 19.336 34.8762 19.104 34.0442 18.64C33.2122 18.176 32.5562 17.472 32.0762 16.528C31.6122 15.584 31.3802 14.384 31.3802 12.928C31.3802 11.44 31.6282 10.2 32.1242 9.208C32.6362 8.216 33.3322 7.48 34.2122 7C35.1082 6.504 36.1242 6.256 37.2602 6.256ZM9.528 33.672C10.584 33.672 11.448 33.832 12.12 34.152C12.808 34.456 13.416 34.816 13.944 35.232C14.264 35.472 14.504 35.504 14.664 35.328C14.84 35.136 14.96 34.696 15.024 34.008H15.576C15.544 34.632 15.52 35.392 15.504 36.288C15.488 37.168 15.48 38.344 15.48 39.816H14.928C14.848 39.08 14.744 38.456 14.616 37.944C14.488 37.416 14.312 36.952 14.088 36.552C13.864 36.152 13.544 35.792 13.128 35.472C12.728 35.072 12.264 34.776 11.736 34.584C11.208 34.392 10.656 34.296 10.08 34.296C9.216 34.296 8.48 34.528 7.872 34.992C7.264 35.44 6.768 36.056 6.384 36.84C6.016 37.624 5.744 38.512 5.568 39.504C5.392 40.48 5.304 41.496 5.304 42.552C5.304 43.624 5.392 44.656 5.568 45.648C5.76 46.624 6.048 47.496 6.432 48.264C6.832 49.032 7.344 49.64 7.968 50.088C8.592 50.536 9.328 50.76 10.176 50.76C10.704 50.76 11.232 50.664 11.76 50.472C12.304 50.264 12.768 49.968 13.152 49.584C13.776 49.104 14.2 48.512 14.424 47.808C14.648 47.088 14.816 46.136 14.928 44.952H15.48C15.48 46.472 15.488 47.704 15.504 48.648C15.52 49.576 15.544 50.36 15.576 51H15.024C14.96 50.312 14.848 49.88 14.688 49.704C14.544 49.528 14.296 49.552 13.944 49.776C13.352 50.192 12.72 50.56 12.048 50.88C11.392 51.184 10.544 51.336 9.504 51.336C7.808 51.336 6.32 50.992 5.04 50.304C3.776 49.616 2.792 48.624 2.088 47.328C1.384 46.032 1.032 44.472 1.032 42.648C1.032 40.856 1.392 39.288 2.112 37.944C2.848 36.6 3.848 35.552 5.112 34.8C6.392 34.048 7.864 33.672 9.528 33.672ZM29.4499 38.328V48.384C29.4499 49.104 29.5619 49.64 29.7859 49.992C30.0099 50.328 30.4099 50.496 30.9859 50.496V51C30.4899 50.952 29.9939 50.928 29.4979 50.928C28.8259 50.928 28.2019 50.952 27.6259 51C27.0499 51.048 26.5059 51.136 25.9939 51.264V49.104C25.6099 49.904 25.0739 50.48 24.3859 50.832C23.7139 51.168 22.9619 51.336 22.1299 51.336C21.4579 51.336 20.9139 51.248 20.4979 51.072C20.0819 50.896 19.7539 50.672 19.5139 50.4C19.2419 50.096 19.0499 49.696 18.9379 49.2C18.8259 48.704 18.7699 48.064 18.7699 47.28V41.208C18.7699 40.488 18.6579 39.96 18.4339 39.624C18.2259 39.272 17.8259 39.096 17.2339 39.096V38.592C17.7459 38.64 18.2419 38.664 18.7219 38.664C19.3939 38.664 20.0179 38.64 20.5939 38.592C21.1859 38.528 21.7299 38.44 22.2259 38.328V48.264C22.2259 48.664 22.2579 49.016 22.3219 49.32C22.4019 49.624 22.5459 49.864 22.7539 50.04C22.9619 50.2 23.2659 50.28 23.6659 50.28C24.0979 50.28 24.4819 50.16 24.8179 49.92C25.1699 49.68 25.4499 49.352 25.6579 48.936C25.8819 48.504 25.9939 48.024 25.9939 47.496V41.208C25.9939 40.488 25.8819 39.96 25.6579 39.624C25.4499 39.272 25.0499 39.096 24.4579 39.096V38.592C24.9699 38.64 25.4659 38.664 25.9459 38.664C26.6179 38.664 27.2419 38.64 27.8179 38.592C28.4099 38.528 28.9539 38.44 29.4499 38.328ZM36.9486 32.208V48.768C36.9486 49.44 37.0606 49.896 37.2846 50.136C37.5246 50.376 37.9246 50.496 38.4846 50.496V51C38.1806 50.984 37.7246 50.968 37.1166 50.952C36.5086 50.92 35.8926 50.904 35.2686 50.904C34.6446 50.904 34.0126 50.92 33.3726 50.952C32.7486 50.968 32.2766 50.984 31.9566 51V50.496C32.5166 50.496 32.9086 50.376 33.1326 50.136C33.3726 49.896 33.4926 49.44 33.4926 48.768V35.088C33.4926 34.368 33.3806 33.84 33.1566 33.504C32.9486 33.152 32.5486 32.976 31.9566 32.976V32.472C32.4686 32.52 32.9646 32.544 33.4446 32.544C34.1006 32.544 34.7246 32.52 35.3166 32.472C35.9086 32.408 36.4526 32.32 36.9486 32.208ZM44.3777 34.656V38.592H47.2097V39.072H44.3777V48.768C44.3777 49.248 44.4657 49.592 44.6417 49.8C44.8177 49.992 45.0817 50.088 45.4337 50.088C45.7217 50.088 46.0097 49.984 46.2977 49.776C46.5857 49.552 46.8417 49.176 47.0657 48.648L47.4737 48.864C47.2177 49.584 46.8257 50.176 46.2977 50.64C45.7857 51.104 45.0817 51.336 44.1857 51.336C43.6577 51.336 43.1937 51.264 42.7937 51.12C42.3937 50.992 42.0577 50.792 41.7857 50.52C41.4337 50.168 41.2017 49.736 41.0897 49.224C40.9777 48.696 40.9217 48.016 40.9217 47.184V39.072H38.9057V38.592H40.9217V35.424C41.5937 35.424 42.2097 35.368 42.7697 35.256C43.3457 35.128 43.8817 34.928 44.3777 34.656ZM59.8952 38.328V48.384C59.8952 49.104 60.0072 49.64 60.2312 49.992C60.4552 50.328 60.8552 50.496 61.4312 50.496V51C60.9352 50.952 60.4392 50.928 59.9432 50.928C59.2712 50.928 58.6472 50.952 58.0712 51C57.4952 51.048 56.9512 51.136 56.4392 51.264V49.104C56.0552 49.904 55.5192 50.48 54.8312 50.832C54.1592 51.168 53.4072 51.336 52.5752 51.336C51.9032 51.336 51.3592 51.248 50.9432 51.072C50.5272 50.896 50.1992 50.672 49.9592 50.4C49.6872 50.096 49.4952 49.696 49.3832 49.2C49.2712 48.704 49.2152 48.064 49.2152 47.28V41.208C49.2152 40.488 49.1032 39.96 48.8792 39.624C48.6712 39.272 48.2712 39.096 47.6792 39.096V38.592C48.1912 38.64 48.6872 38.664 49.1672 38.664C49.8392 38.664 50.4632 38.64 51.0392 38.592C51.6312 38.528 52.1752 38.44 52.6712 38.328V48.264C52.6712 48.664 52.7032 49.016 52.7672 49.32C52.8472 49.624 52.9912 49.864 53.1992 50.04C53.4072 50.2 53.7112 50.28 54.1112 50.28C54.5432 50.28 54.9272 50.16 55.2632 49.92C55.6152 49.68 55.8952 49.352 56.1032 48.936C56.3272 48.504 56.4392 48.024 56.4392 47.496V41.208C56.4392 40.488 56.3272 39.96 56.1032 39.624C55.8952 39.272 55.4952 39.096 54.9032 39.096V38.592C55.4152 38.64 55.9112 38.664 56.3912 38.664C57.0632 38.664 57.6872 38.64 58.2632 38.592C58.8552 38.528 59.3992 38.44 59.8952 38.328ZM70.7539 38.256C71.2659 38.256 71.6819 38.368 72.0019 38.592C72.3219 38.8 72.5539 39.072 72.6979 39.408C72.8579 39.744 72.9379 40.096 72.9379 40.464C72.9379 41.056 72.7619 41.544 72.4099 41.928C72.0739 42.296 71.6259 42.48 71.0659 42.48C70.5059 42.48 70.0659 42.344 69.7459 42.072C69.4419 41.784 69.2899 41.408 69.2899 40.944C69.2899 40.496 69.3859 40.128 69.5779 39.84C69.7859 39.536 70.0419 39.28 70.3459 39.072C70.1219 39.008 69.8979 39.016 69.6739 39.096C69.3699 39.144 69.0819 39.272 68.8099 39.48C68.5379 39.672 68.3059 39.92 68.1139 40.224C67.9219 40.512 67.7699 40.832 67.6579 41.184C67.5459 41.52 67.4899 41.848 67.4899 42.168V48.528C67.4899 49.296 67.6739 49.816 68.0419 50.088C68.4259 50.36 68.9939 50.496 69.7459 50.496V51C69.3779 50.984 68.8419 50.968 68.1379 50.952C67.4339 50.92 66.6979 50.904 65.9299 50.904C65.2899 50.904 64.6419 50.92 63.9859 50.952C63.3299 50.968 62.8339 50.984 62.4979 51V50.496C63.0579 50.496 63.4499 50.376 63.6739 50.136C63.9139 49.896 64.0339 49.44 64.0339 48.768V41.208C64.0339 40.488 63.9219 39.96 63.6979 39.624C63.4899 39.272 63.0899 39.096 62.4979 39.096V38.592C63.0099 38.64 63.5059 38.664 63.9859 38.664C64.6579 38.664 65.2819 38.64 65.8579 38.592C66.4499 38.528 66.9939 38.44 67.4899 38.328V40.56C67.6819 40.128 67.9379 39.736 68.2579 39.384C68.5779 39.032 68.9459 38.76 69.3619 38.568C69.7779 38.36 70.2419 38.256 70.7539 38.256ZM79.5649 38.256C80.9729 38.256 82.0769 38.672 82.8769 39.504C83.6769 40.336 84.0769 41.696 84.0769 43.584H76.1809L76.1329 43.128H81.0529C81.0689 42.344 81.0209 41.624 80.9089 40.968C80.7969 40.296 80.6209 39.76 80.3809 39.36C80.1409 38.96 79.8209 38.76 79.4209 38.76C78.8609 38.76 78.3809 39.112 77.9809 39.816C77.5969 40.52 77.3649 41.688 77.2849 43.32L77.3569 43.464C77.3409 43.656 77.3249 43.856 77.3089 44.064C77.3089 44.272 77.3089 44.488 77.3089 44.712C77.3089 45.816 77.4609 46.712 77.7649 47.4C78.0849 48.088 78.4849 48.592 78.9649 48.912C79.4449 49.216 79.9329 49.368 80.4289 49.368C80.7649 49.368 81.1089 49.32 81.4609 49.224C81.8289 49.112 82.1969 48.92 82.5649 48.648C82.9329 48.36 83.2769 47.96 83.5969 47.448L84.0289 47.592C83.8369 48.2 83.5329 48.792 83.1169 49.368C82.7009 49.944 82.1729 50.416 81.5329 50.784C80.8929 51.152 80.1249 51.336 79.2289 51.336C78.1409 51.336 77.1809 51.104 76.3489 50.64C75.5169 50.176 74.8609 49.472 74.3809 48.528C73.9169 47.584 73.6849 46.384 73.6849 44.928C73.6849 43.44 73.9329 42.2 74.4289 41.208C74.9409 40.216 75.6369 39.48 76.5169 39C77.4129 38.504 78.4289 38.256 79.5649 38.256Z" fill="black"/>
</svg>
